<svg id="Layer_1" data-name="Layer 1" xmlns="http://www.w3.org/2000/svg" viewBox="0 0 166.21 144.12"><defs><style>.cls-1{fill:#00a8ff;}.cls-2{fill:#1c9b86;}.cls-3{fill:#182a69;}</style></defs><path class="cls-1" d="M83.08,20.46V18.74q-9.8,0-19.57.52c-3.63.19-8.5,2.88-10.37,5.91-10.44,17-20.24,34.32-30,51.71-1.23,2.21-2,6-.94,8,3.56,6.51,7.25,13,11,19.42l3.5-3.5Z"/><path class="cls-2" d="M129.79,100.74l-.73.78,3.63,3.63c3.87-6.65,7.62-13.23,11.19-19.91,1.18-2.19.35-6.39-1-8.85-9.47-17.11-19.08-34.16-29.29-50.83-1.9-3.1-6.62-6.07-10.2-6.27q-10-.55-20-.55v1.68C99.64,48.61,114.72,74.67,129.79,100.74Z"/><path class="cls-3" d="M129.06,101.52l-.17.18-.63.67c-11.83-5.62-23.87-10.83-35.4-17-6.92-3.71-12.71-3.5-19.52.12A211.09,211.09,0,0,1,37,100.86l-.38.12.14-.23-3.5,3.5a2.53,2.53,0,0,0,.13.22C37.2,111,41.11,117.63,45,124.37c7.42-3.53,14.44-6,20.56-10,11.71-7.5,22.7-8.46,34.67-.39,6.28,4.24,13.72,6.73,21.23,10.3,3.76-6.48,7.46-12.74,11.06-18.94l.13-.23Z"/></svg>